<?xml version="1.0" encoding="utf-8"?>
<!-- Generator: Adobe Illustrator 22.1.0, SVG Export Plug-In . SVG Version: 6.00 Build 0)  -->
<svg version="1.1" id="Warstwa_1" xmlns="http://www.w3.org/2000/svg" xmlns:xlink="http://www.w3.org/1999/xlink" x="0px" y="0px"
	 viewBox="0 0 261 137.2" style="enable-background:new 0 0 261 137.2;" xml:space="preserve">
<style type="text/css">
	.st0{fill:#2FAC66;}
	.st1{font-family:'Roboto-Light';}
	.st2{font-size:46px;}
</style>
<text transform="matrix(1 0 0 1 0 125.219)" class="st0 st1 st2">CheckAlle</text>
<text transform="matrix(1 0 0 1 198.2178 125.219)" class="st0 st1 st2">r</text>
<text transform="matrix(1 0 0 1 213.2333 125.219)" class="st0 st1 st2">gy</text>
<g id="Group_1" transform="translate(896.575 50)">

		<rect id="Rectangle_1" x="-796.9" y="-15.3" transform="matrix(0.361 -0.9326 0.9326 0.361 -474.9932 -719.0421)" class="st0" width="69.4" height="4.7"/>

		<rect id="Rectangle_2" x="-742.6" y="-49" transform="matrix(0.9552 -0.2961 0.2961 0.9552 -27.736 -219.9688)" class="st0" width="4.7" height="61.3"/>
	<rect id="Rectangle_3" x="-764.2" y="-11.8" class="st0" width="26.7" height="4.7"/>
	<path id="Path_1" class="st0" d="M-730.1,6.4c-10.2,15.3-30.9,19.4-46.1,9.2c-15.3-10.2-19.4-30.9-9.2-46.1
		c8.7-13.1,25.5-18.2,40.1-12.4l-1.7-5.5c-20-6.1-41.2,5.1-47.3,25.2c-6.1,20,5.1,41.2,25.2,47.3c3.7,1.1,7.5,1.7,11.4,1.7
		c11.4,0,22.2-5,29.5-13.8L-730.1,6.4z"/>
</g>
</svg>
